<svg width="195" height="48" viewBox="0 0 195 48" fill="none" xmlns="http://www.w3.org/2000/svg">
<rect width="195" height="48" rx="5" fill="#6933FF"/>
<path d="M43.1248 30H40.8848L35.8128 22.336V30H33.5728V18.816H35.8128L40.8848 26.496V18.816H43.1248V30ZM49.2744 30.144C48.421 30.144 47.653 29.9573 46.9704 29.584C46.2877 29.2 45.749 28.6613 45.3544 27.968C44.9704 27.2747 44.7784 26.4747 44.7784 25.568C44.7784 24.6613 44.9757 23.8613 45.3704 23.168C45.7757 22.4747 46.325 21.9413 47.0184 21.568C47.7117 21.184 48.485 20.992 49.3384 20.992C50.1917 20.992 50.965 21.184 51.6584 21.568C52.3517 21.9413 52.8957 22.4747 53.2904 23.168C53.6957 23.8613 53.8984 24.6613 53.8984 25.568C53.8984 26.4747 53.6904 27.2747 53.2744 27.968C52.869 28.6613 52.3144 29.2 51.6104 29.584C50.917 29.9573 50.1384 30.144 49.2744 30.144ZM49.2744 28.192C49.6797 28.192 50.0584 28.096 50.4104 27.904C50.773 27.7013 51.061 27.4027 51.2744 27.008C51.4877 26.6133 51.5944 26.1333 51.5944 25.568C51.5944 24.7253 51.3704 24.08 50.9224 23.632C50.485 23.1733 49.9464 22.944 49.3064 22.944C48.6664 22.944 48.1277 23.1733 47.6904 23.632C47.2637 24.08 47.0504 24.7253 47.0504 25.568C47.0504 26.4107 47.2584 27.0613 47.6744 27.52C48.101 27.968 48.6344 28.192 49.2744 28.192ZM59.2375 27.936L61.4775 21.136H63.8615L60.5815 30H57.8615L54.5975 21.136H56.9975L59.2375 27.936ZM64.5436 25.536C64.5436 24.64 64.7196 23.8453 65.0716 23.152C65.4343 22.4587 65.9196 21.9253 66.5276 21.552C67.1463 21.1787 67.8343 20.992 68.5916 20.992C69.253 20.992 69.829 21.1253 70.3196 21.392C70.821 21.6587 71.221 21.9947 71.5196 22.4V21.136H73.7756V30H71.5196V28.704C71.2316 29.12 70.8316 29.4667 70.3196 29.744C69.8183 30.0107 69.237 30.144 68.5756 30.144C67.829 30.144 67.1463 29.952 66.5276 29.568C65.9196 29.184 65.4343 28.6453 65.0716 27.952C64.7196 27.248 64.5436 26.4427 64.5436 25.536ZM71.5196 25.568C71.5196 25.024 71.413 24.56 71.1996 24.176C70.9863 23.7813 70.6983 23.4827 70.3356 23.28C69.973 23.0667 69.5836 22.96 69.1676 22.96C68.7516 22.96 68.3676 23.0613 68.0156 23.264C67.6636 23.4667 67.3756 23.7653 67.1516 24.16C66.9383 24.544 66.8316 25.0027 66.8316 25.536C66.8316 26.0693 66.9383 26.5387 67.1516 26.944C67.3756 27.3387 67.6636 27.6427 68.0156 27.856C68.3783 28.0693 68.7623 28.176 69.1676 28.176C69.5836 28.176 69.973 28.0747 70.3356 27.872C70.6983 27.6587 70.9863 27.36 71.1996 26.976C71.413 26.5813 71.5196 26.112 71.5196 25.568ZM82.3839 22.976V27.264C82.3839 27.5627 82.4532 27.7813 82.5919 27.92C82.7412 28.048 82.9865 28.112 83.3279 28.112H84.3679V30H82.9599C81.0719 30 80.1279 29.0827 80.1279 27.248V22.976H79.0719V21.136H80.1279V18.944H82.3839V21.136H84.3679V22.976H82.3839ZM88.219 22.512C88.507 22.0427 88.8803 21.6747 89.339 21.408C89.8083 21.1413 90.3417 21.008 90.939 21.008V23.36H90.347C89.643 23.36 89.1097 23.5253 88.747 23.856C88.395 24.1867 88.219 24.7627 88.219 25.584V30H85.979V21.136H88.219V22.512ZM91.8717 25.536C91.8717 24.64 92.0477 23.8453 92.3997 23.152C92.7624 22.4587 93.2478 21.9253 93.8558 21.552C94.4744 21.1787 95.1624 20.992 95.9198 20.992C96.5811 20.992 97.1571 21.1253 97.6478 21.392C98.1491 21.6587 98.5491 21.9947 98.8478 22.4V21.136H101.104V30H98.8478V28.704C98.5598 29.12 98.1598 29.4667 97.6478 29.744C97.1464 30.0107 96.5651 30.144 95.9038 30.144C95.1571 30.144 94.4744 29.952 93.8558 29.568C93.2478 29.184 92.7624 28.6453 92.3997 27.952C92.0477 27.248 91.8717 26.4427 91.8717 25.536ZM98.8478 25.568C98.8478 25.024 98.7411 24.56 98.5278 24.176C98.3144 23.7813 98.0264 23.4827 97.6638 23.28C97.3011 23.0667 96.9118 22.96 96.4958 22.96C96.0798 22.96 95.6958 23.0613 95.3438 23.264C94.9918 23.4667 94.7038 23.7653 94.4798 24.16C94.2664 24.544 94.1598 25.0027 94.1598 25.536C94.1598 26.0693 94.2664 26.5387 94.4798 26.944C94.7038 27.3387 94.9918 27.6427 95.3438 27.856C95.7064 28.0693 96.0904 28.176 96.4958 28.176C96.9118 28.176 97.3011 28.0747 97.6638 27.872C98.0264 27.6587 98.3144 27.36 98.5278 26.976C98.7411 26.5813 98.8478 26.112 98.8478 25.568ZM108.204 21.008C109.26 21.008 110.113 21.344 110.764 22.016C111.414 22.6773 111.74 23.6053 111.74 24.8V30H109.5V25.104C109.5 24.4 109.324 23.8613 108.972 23.488C108.62 23.104 108.14 22.912 107.532 22.912C106.913 22.912 106.422 23.104 106.06 23.488C105.708 23.8613 105.532 24.4 105.532 25.104V30H103.292V21.136H105.532V22.24C105.83 21.856 106.209 21.5573 106.668 21.344C107.137 21.12 107.649 21.008 108.204 21.008ZM117.262 30.144C116.536 30.144 115.886 30.016 115.31 29.76C114.734 29.4933 114.275 29.136 113.934 28.688C113.603 28.24 113.422 27.744 113.39 27.2H115.646C115.688 27.5413 115.854 27.824 116.142 28.048C116.44 28.272 116.808 28.384 117.246 28.384C117.672 28.384 118.003 28.2987 118.238 28.128C118.483 27.9573 118.606 27.7387 118.606 27.472C118.606 27.184 118.456 26.9707 118.158 26.832C117.87 26.6827 117.406 26.5227 116.766 26.352C116.104 26.192 115.56 26.0267 115.134 25.856C114.718 25.6853 114.355 25.424 114.046 25.072C113.747 24.72 113.598 24.2453 113.598 23.648C113.598 23.1573 113.736 22.7093 114.014 22.304C114.302 21.8987 114.707 21.5787 115.23 21.344C115.763 21.1093 116.387 20.992 117.102 20.992C118.158 20.992 119 21.2587 119.63 21.792C120.259 22.3147 120.606 23.024 120.67 23.92H118.526C118.494 23.568 118.344 23.2907 118.078 23.088C117.822 22.8747 117.475 22.768 117.038 22.768C116.632 22.768 116.318 22.8427 116.094 22.992C115.88 23.1413 115.774 23.3493 115.774 23.616C115.774 23.9147 115.923 24.144 116.222 24.304C116.52 24.4533 116.984 24.608 117.614 24.768C118.254 24.928 118.782 25.0933 119.198 25.264C119.614 25.4347 119.971 25.7013 120.27 26.064C120.579 26.416 120.739 26.8853 120.75 27.472C120.75 27.984 120.606 28.4427 120.318 28.848C120.04 29.2533 119.635 29.5733 119.102 29.808C118.579 30.032 117.966 30.144 117.262 30.144ZM122.012 25.536C122.012 24.64 122.188 23.8453 122.54 23.152C122.903 22.4587 123.388 21.9253 123.996 21.552C124.615 21.1787 125.303 20.992 126.06 20.992C126.722 20.992 127.298 21.1253 127.788 21.392C128.29 21.6587 128.69 21.9947 128.988 22.4V21.136H131.244V30H128.988V28.704C128.7 29.12 128.3 29.4667 127.788 29.744C127.287 30.0107 126.706 30.144 126.044 30.144C125.298 30.144 124.615 29.952 123.996 29.568C123.388 29.184 122.903 28.6453 122.54 27.952C122.188 27.248 122.012 26.4427 122.012 25.536ZM128.988 25.568C128.988 25.024 128.882 24.56 128.668 24.176C128.455 23.7813 128.167 23.4827 127.804 23.28C127.442 23.0667 127.052 22.96 126.636 22.96C126.22 22.96 125.836 23.0613 125.484 23.264C125.132 23.4667 124.844 23.7653 124.62 24.16C124.407 24.544 124.3 25.0027 124.3 25.536C124.3 26.0693 124.407 26.5387 124.62 26.944C124.844 27.3387 125.132 27.6427 125.484 27.856C125.847 28.0693 126.231 28.176 126.636 28.176C127.052 28.176 127.442 28.0747 127.804 27.872C128.167 27.6587 128.455 27.36 128.668 26.976C128.882 26.5813 128.988 26.112 128.988 25.568ZM137.224 28.224C138.131 28.224 138.723 27.8187 139 27.008H141.416C141.192 27.872 140.776 28.576 140.168 29.12C139.571 29.664 138.819 29.9893 137.912 30.096V30.72C138.499 30.72 138.989 30.8693 139.384 31.168C139.789 31.4667 139.992 31.8987 139.992 32.464C139.992 33.04 139.784 33.4827 139.368 33.792C138.963 34.1013 138.461 34.256 137.864 34.256H135.592V32.944H137.496C137.752 32.944 137.944 32.9067 138.072 32.832C138.211 32.7573 138.28 32.624 138.28 32.432C138.28 32.24 138.211 32.1067 138.072 32.032C137.944 31.968 137.752 31.936 137.496 31.936H136.504V30.096C135.779 29.9893 135.139 29.7387 134.584 29.344C134.04 28.9387 133.613 28.416 133.304 27.776C133.005 27.1253 132.856 26.3893 132.856 25.568C132.856 24.6507 133.043 23.8507 133.416 23.168C133.789 22.4747 134.307 21.9413 134.968 21.568C135.629 21.184 136.387 20.992 137.24 20.992C138.339 20.992 139.245 21.2693 139.96 21.824C140.685 22.368 141.171 23.136 141.416 24.128H139C138.872 23.744 138.653 23.4453 138.344 23.232C138.045 23.008 137.672 22.896 137.224 22.896C136.584 22.896 136.077 23.1307 135.704 23.6C135.331 24.0587 135.144 24.7147 135.144 25.568C135.144 26.4107 135.331 27.0667 135.704 27.536C136.077 27.9947 136.584 28.224 137.224 28.224ZM142.481 25.536C142.481 24.64 142.657 23.8453 143.009 23.152C143.372 22.4587 143.857 21.9253 144.465 21.552C145.084 21.1787 145.772 20.992 146.529 20.992C147.19 20.992 147.766 21.1253 148.257 21.392C148.758 21.6587 149.158 21.9947 149.457 22.4V21.136H151.713V30H149.457V28.704C149.169 29.12 148.769 29.4667 148.257 29.744C147.756 30.0107 147.174 30.144 146.513 30.144C145.766 30.144 145.084 29.952 144.465 29.568C143.857 29.184 143.372 28.6453 143.009 27.952C142.657 27.248 142.481 26.4427 142.481 25.536ZM149.457 25.568C149.457 25.024 149.35 24.56 149.137 24.176C148.924 23.7813 148.636 23.4827 148.273 23.28C147.91 23.0667 147.521 22.96 147.105 22.96C146.689 22.96 146.305 23.0613 145.953 23.264C145.601 23.4667 145.313 23.7653 145.089 24.16C144.876 24.544 144.769 25.0027 144.769 25.536C144.769 26.0693 144.876 26.5387 145.089 26.944C145.313 27.3387 145.601 27.6427 145.953 27.856C146.316 28.0693 146.7 28.176 147.105 28.176C147.521 28.176 147.91 28.0747 148.273 27.872C148.636 27.6587 148.924 27.36 149.137 26.976C149.35 26.5813 149.457 26.112 149.457 25.568ZM144.529 20.288C144.625 19.584 144.844 19.0613 145.185 18.72C145.537 18.368 145.98 18.192 146.513 18.192C146.737 18.192 146.934 18.2293 147.105 18.304C147.276 18.368 147.468 18.464 147.681 18.592C148.001 18.7947 148.268 18.896 148.481 18.896C148.876 18.896 149.105 18.6667 149.169 18.208H150.369C150.273 18.912 150.049 19.44 149.697 19.792C149.356 20.1333 148.918 20.304 148.385 20.304C148.161 20.304 147.964 20.272 147.793 20.208C147.622 20.1333 147.43 20.032 147.217 19.904C146.908 19.6907 146.641 19.584 146.417 19.584C146.022 19.584 145.788 19.8187 145.713 20.288H144.529ZM157.837 30.144C156.984 30.144 156.216 29.9573 155.533 29.584C154.85 29.2 154.312 28.6613 153.917 27.968C153.533 27.2747 153.341 26.4747 153.341 25.568C153.341 24.6613 153.538 23.8613 153.933 23.168C154.338 22.4747 154.888 21.9413 155.581 21.568C156.274 21.184 157.048 20.992 157.901 20.992C158.754 20.992 159.528 21.184 160.221 21.568C160.914 21.9413 161.458 22.4747 161.853 23.168C162.258 23.8613 162.461 24.6613 162.461 25.568C162.461 26.4747 162.253 27.2747 161.837 27.968C161.432 28.6613 160.877 29.2 160.173 29.584C159.48 29.9573 158.701 30.144 157.837 30.144ZM157.837 28.192C158.242 28.192 158.621 28.096 158.973 27.904C159.336 27.7013 159.624 27.4027 159.837 27.008C160.05 26.6133 160.157 26.1333 160.157 25.568C160.157 24.7253 159.933 24.08 159.485 23.632C159.048 23.1733 158.509 22.944 157.869 22.944C157.229 22.944 156.69 23.1733 156.253 23.632C155.826 24.08 155.613 24.7253 155.613 25.568C155.613 26.4107 155.821 27.0613 156.237 27.52C156.664 27.968 157.197 28.192 157.837 28.192Z" fill="white"/>
</svg>
